<svg id="Layer_1" data-name="Layer 1" xmlns="http://www.w3.org/2000/svg" viewBox="0 0 411.1 117.74"><defs><style>.cls-1{font-size:61.79px;stroke:#000;stroke-miterlimit:10;font-family:ArialRoundedMTBold, Arial Rounded MT Bold;}.cls-2{letter-spacing:-0.04em;}.cls-3{fill:#ef8031;}.cls-4{fill:#9c298c;}.cls-5{fill:#91be4a;}.cls-6{fill:#00a8de;}.cls-7{fill:#e9187e;}.cls-8{fill:#eb2c3b;}</style></defs><text class="cls-1" transform="translate(0.5 89.62)">P<tspan class="cls-2" x="41.21" y="0">r</tspan><tspan x="65.92" y="0">oClient</tspan></text><path class="cls-3" d="M394.54,99.76c-.47.48-.94.95-1.43,1.42-4,3.49-10,4.75-17.32,3.73.3-.54.6-1.09.89-1.65a77.26,77.26,0,0,0,5.57-14.37,77.26,77.26,0,0,0,14.37-5.57c.56-.29,1.11-.59,1.65-.89C399.29,89.76,398,95.73,394.54,99.76Z"/><path class="cls-4" d="M352.23,117.74c-5.67,0-11.16-3.38-15.89-9.65l1.79-.54a77.07,77.07,0,0,0,14.1-6.22,77.29,77.29,0,0,0,14.09,6.22c.61.19,1.2.37,1.8.54C363.38,114.36,357.9,117.74,352.23,117.74Z"/><path class="cls-5" d="M309.92,99.76c-3.49-4-4.76-10-3.73-17.33.54.3,1.08.6,1.65.89a77.15,77.15,0,0,0,14.36,5.57,78,78,0,0,0,5.57,14.37c.29.56.59,1.11.89,1.65-7.32,1-13.3-.24-17.32-3.73C310.86,100.71,310.38,100.24,309.92,99.76Z"/><path class="cls-6" d="M309.92,18c.46-.48.94-.95,1.42-1.42,4-3.49,10-4.76,17.32-3.73-.3.54-.6,1.09-.89,1.65a77.86,77.86,0,0,0-5.57,14.36,77.86,77.86,0,0,0-14.36,5.57c-.57.29-1.11.59-1.65.89C305.16,28,306.43,22,309.92,18Z"/><path class="cls-5" d="M352.23,0c5.67,0,11.16,3.37,15.89,9.65l-1.8.54a77.29,77.29,0,0,0-14.09,6.22,77.07,77.07,0,0,0-14.1-6.22q-.9-.28-1.8-.54C341.07,3.37,346.56,0,352.23,0Z"/><path class="cls-7" d="M394.54,18c3.49,4,4.75,10,3.73,17.32-.54-.3-1.09-.6-1.65-.89a78,78,0,0,0-14.37-5.57,77.15,77.15,0,0,0-5.57-14.36c-.29-.56-.59-1.11-.89-1.65a34.37,34.37,0,0,1,4.73-.35c5.18,0,9.47,1.37,12.59,4.08C393.59,17,394.07,17.5,394.54,18Z"/><path class="cls-4" d="M379.61,79.4c-.36,1.91-.77,3.79-1.23,5.62q-2.75.69-5.63,1.23c1.19-1.09,2.35-2.21,3.5-3.36h0Q378,81.16,379.61,79.4Z"/><path class="cls-4" d="M357.08,92.75q-2.41,1.65-4.85,3.11-2.43-1.45-4.85-3.11c1.6.06,3.22.09,4.85.09S355.47,92.81,357.08,92.75Z"/><path class="cls-4" d="M331.7,86.25q-2.88-.54-5.63-1.23c-.46-1.83-.87-3.71-1.23-5.62q1.64,1.77,3.36,3.49h0Q329.93,84.62,331.7,86.25Z"/><path class="cls-8" d="M318.35,63.72q-1.65-2.41-3.11-4.85,1.45-2.43,3.11-4.85c-.07,1.6-.1,3.22-.1,4.85S318.28,62.11,318.35,63.72Z"/><path class="cls-5" d="M324.84,38.34c.36-1.92.77-3.79,1.23-5.63q2.74-.69,5.63-1.23-1.77,1.64-3.5,3.36T324.84,38.34Z"/><path class="cls-4" d="M347.38,25q2.42-1.65,4.85-3.11,2.43,1.46,4.85,3.11c-1.61-.07-3.23-.1-4.85-.1S349,24.92,347.38,25Z"/><path class="cls-5" d="M372.76,31.48c1.91.36,3.79.77,5.62,1.23.46,1.84.87,3.71,1.23,5.63q-1.64-1.77-3.36-3.5T372.76,31.48Z"/><path class="cls-8" d="M386.11,54q1.65,2.41,3.11,4.85-1.46,2.43-3.11,4.85c.06-1.61.09-3.23.09-4.85S386.17,55.62,386.11,54Z"/><path class="cls-8" d="M385.42,45.12a106.91,106.91,0,0,0-1.82-10.93,70.93,70.93,0,0,1,10.84,4.43c1,.52,1.94,1,2.85,1.58-.26,1-.56,2.07-.9,3.13a70.27,70.27,0,0,1-4.53,10.8A107.63,107.63,0,0,0,385.42,45.12Z"/><path class="cls-5" d="M372.47,16.65A70.46,70.46,0,0,1,376.9,27.5,109.51,109.51,0,0,0,366,25.67a110,110,0,0,0-9-6.43,70.34,70.34,0,0,1,10.8-4.54c1.07-.34,2.11-.63,3.13-.9C371.43,14.71,372,15.66,372.47,16.65Z"/><path class="cls-3" d="M336.69,14.7a70.34,70.34,0,0,1,10.8,4.54,109.83,109.83,0,0,0-9,6.43,109.23,109.23,0,0,0-10.93,1.83A70.46,70.46,0,0,1,332,16.65c.52-1,1-1.94,1.58-2.85C334.58,14.06,335.63,14.36,336.69,14.7Z"/><path class="cls-6" d="M310,38.62a70.64,70.64,0,0,1,10.85-4.43A109.72,109.72,0,0,0,319,45.12a106.82,106.82,0,0,0-6.43,9,70.34,70.34,0,0,1-4.54-10.8c-.34-1.06-.64-2.1-.9-3.13C308.07,39.66,309,39.14,310,38.62Z"/><path class="cls-8" d="M303.55,44.77a77.07,77.07,0,0,0,6.22,14.1A77.29,77.29,0,0,0,303.55,73c-.2.61-.37,1.21-.54,1.8-6.28-4.73-9.65-10.22-9.65-15.89S296.73,47.71,303,43C303.18,43.57,303.35,44.17,303.55,44.77Z"/><path class="cls-4" d="M308.06,74.4a70.34,70.34,0,0,1,4.54-10.8,105.36,105.36,0,0,0,6.43,9,109.51,109.51,0,0,0,1.83,10.92A69.65,69.65,0,0,1,310,79.11c-1-.51-1.94-1-2.85-1.57C307.42,76.51,307.72,75.47,308.06,74.4Z"/><path class="cls-6" d="M332,101.08a69.93,69.93,0,0,1-4.43-10.84,106.45,106.45,0,0,0,10.93,1.82,107.63,107.63,0,0,0,9,6.44,70.27,70.27,0,0,1-10.8,4.53c-1.06.34-2.11.64-3.13.9C333,103,332.5,102.08,332,101.08Z"/><path class="cls-8" d="M367.76,103A70.27,70.27,0,0,1,357,98.5a107.76,107.76,0,0,0,9-6.44,106.71,106.71,0,0,0,10.92-1.82,69.93,69.93,0,0,1-4.43,10.84c-.51,1-1,2-1.58,2.85C369.87,103.67,368.83,103.37,367.76,103Z"/><path class="cls-6" d="M394.44,79.11a69.93,69.93,0,0,1-10.84,4.43,106.71,106.71,0,0,0,1.82-10.92,107.76,107.76,0,0,0,6.44-9,70.27,70.27,0,0,1,4.53,10.8c.34,1.07.64,2.11.9,3.14C396.38,78.07,395.43,78.6,394.44,79.11Z"/><path class="cls-5" d="M400.91,73a77.29,77.29,0,0,0-6.22-14.09,77.07,77.07,0,0,0,6.22-14.1c.19-.6.37-1.2.54-1.79,6.27,4.73,9.65,10.22,9.65,15.89S407.72,70,401.45,74.76Q401.19,73.88,400.91,73Z"/><path class="cls-4" d="M402.63,38a40,40,0,0,0,.7-8.31A58.28,58.28,0,0,1,409,43.39,41,41,0,0,0,402.63,38Z"/><path class="cls-3" d="M381.42,7.76a40.1,40.1,0,0,0-8.32.71,39.09,39.09,0,0,0-5.4-6.4A58.32,58.32,0,0,1,381.42,7.76Z"/><path class="cls-8" d="M331.35,8.47A40.06,40.06,0,0,0,323,7.76a58.25,58.25,0,0,1,13.71-5.69A40,40,0,0,0,331.35,8.47Z"/><path class="cls-6" d="M323,110l.91,0a40.78,40.78,0,0,0,7.41-.72,40.47,40.47,0,0,0,5.4,6.4A58.35,58.35,0,0,1,323,110Z"/><path class="cls-3" d="M373.1,109.27a41,41,0,0,0,7.42.72l.9,0a58.18,58.18,0,0,1-13.72,5.7A39.94,39.94,0,0,0,373.1,109.27Z"/><path class="cls-7" d="M403.33,88.06a40.06,40.06,0,0,0-.7-8.32,39.94,39.94,0,0,0,6.4-5.4A58.35,58.35,0,0,1,403.33,88.06Z"/><path d="M329.18,65h6.09a3,3,0,0,0,1.82-.43,1.62,1.62,0,0,0,.58-1.38,1.59,1.59,0,0,0-.59-1.36,3,3,0,0,0-1.81-.44h-4.93V58.85h4.85a3,3,0,0,0,1.82-.43,1.55,1.55,0,0,0,.58-1.34,1.59,1.59,0,0,0-.58-1.36,3.07,3.07,0,0,0-1.82-.44h-6V52.76h7.09a5.87,5.87,0,0,1,3.7,1,4.11,4.11,0,0,1,.7,4.84,5.17,5.17,0,0,1-1.51,1.57,3.66,3.66,0,0,1,1.53,1.39,4.07,4.07,0,0,1,.49,2.09,3.6,3.6,0,0,1-1.2,2.9,5.09,5.09,0,0,1-3.39,1h-7.41Z"/><path d="M351.38,59a6.18,6.18,0,0,1,3.87,1,3.72,3.72,0,0,1,1.26,3.1,4,4,0,0,1-1.67,3.45,8.46,8.46,0,0,1-4.9,1.18c-2.54,0-4.42-.6-5.62-1.79s-1.79-3.07-1.79-5.62.63-4.5,1.9-5.72,3.27-1.83,6-1.83h5.27v2.52h-5.35a4.79,4.79,0,0,0-3.19.88,3.66,3.66,0,0,0-1,2.83Zm-.18,2.54h-5.09a3.76,3.76,0,0,0,.95,2.83,4.3,4.3,0,0,0,3,.87,4.17,4.17,0,0,0,2.26-.46,1.67,1.67,0,0,0,.69-1.5,1.75,1.75,0,0,0-.45-1.31A1.91,1.91,0,0,0,351.2,61.53Z"/><path d="M364.85,67.74q-3.78,0-5.59-1.85t-1.81-5.72q0-3.89,1.81-5.74t5.59-1.86c2.5,0,4.36.62,5.56,1.86s1.8,3.15,1.8,5.74-.6,4.49-1.8,5.72S367.35,67.74,364.85,67.74Zm0-2.44a3.72,3.72,0,0,0,3.1-1.26,6.12,6.12,0,0,0,1-3.87,6.18,6.18,0,0,0-1-3.89,3.75,3.75,0,0,0-3.1-1.26,3.71,3.71,0,0,0-3.1,1.26,6.18,6.18,0,0,0-1,3.89,6.12,6.12,0,0,0,1,3.87A3.71,3.71,0,0,0,364.83,65.3Z"/><path d="M376,54.32a3,3,0,1,1,3-3A3,3,0,0,1,376,54.32Zm0-4.4a1.44,1.44,0,1,0,1.45,1.44A1.44,1.44,0,0,0,376,49.92Z"/></svg>