<svg id="Layer_1" data-name="Layer 1" xmlns="http://www.w3.org/2000/svg" viewBox="0 0 117.74 117.74"><defs><style>.cls-1{fill:#ef8031;}.cls-2{fill:#9c298c;}.cls-3{fill:#91be4a;}.cls-4{fill:#00a8de;}.cls-5{fill:#e9187e;}.cls-6{fill:#eb2c3b;}</style></defs><path class="cls-1" d="M101.18,99.76l-1.42,1.42c-4,3.49-10,4.75-17.33,3.73.3-.54.6-1.09.89-1.65a77.26,77.26,0,0,0,5.57-14.37,77.26,77.26,0,0,0,14.37-5.57c.56-.29,1.11-.59,1.65-.89C105.94,89.76,104.67,95.73,101.18,99.76Z"/><path class="cls-2" d="M58.87,117.74c-5.67,0-11.16-3.38-15.89-9.65l1.79-.54a77.07,77.07,0,0,0,14.1-6.22A77.29,77.29,0,0,0,73,107.55l1.8.54C70,114.36,64.54,117.74,58.87,117.74Z"/><path class="cls-3" d="M16.56,99.76c-3.49-4-4.76-10-3.73-17.33.54.3,1.09.6,1.65.89a77.15,77.15,0,0,0,14.36,5.57,78,78,0,0,0,5.57,14.37c.29.56.59,1.11.89,1.65-7.32,1-13.3-.24-17.32-3.73Z"/><path class="cls-4" d="M16.56,18,18,16.56c4-3.49,10-4.76,17.32-3.73-.3.54-.6,1.09-.89,1.65a77.86,77.86,0,0,0-5.57,14.36,77.86,77.86,0,0,0-14.36,5.57c-.56.29-1.11.59-1.65.89C11.8,28,13.07,22,16.56,18Z"/><path class="cls-3" d="M58.87,0C64.54,0,70,3.37,74.76,9.65l-1.8.54a77.29,77.29,0,0,0-14.09,6.22,77.07,77.07,0,0,0-14.1-6.22L43,9.65C47.71,3.37,53.2,0,58.87,0Z"/><path class="cls-5" d="M101.18,18c3.49,4,4.76,10,3.73,17.32-.54-.3-1.09-.6-1.65-.89a78,78,0,0,0-14.37-5.57,77.15,77.15,0,0,0-5.57-14.36c-.29-.56-.59-1.11-.89-1.65a34.37,34.37,0,0,1,4.73-.35c5.18,0,9.48,1.37,12.59,4.08C100.24,17,100.71,17.5,101.18,18Z"/><path class="cls-2" d="M86.25,79.4c-.36,1.91-.77,3.79-1.23,5.62-1.83.46-3.71.87-5.62,1.23q1.77-1.64,3.49-3.36h0Q84.62,81.16,86.25,79.4Z"/><path class="cls-2" d="M63.72,92.75q-2.41,1.65-4.85,3.11Q56.44,94.41,54,92.75c1.6.06,3.22.09,4.85.09S62.11,92.81,63.72,92.75Z"/><path class="cls-2" d="M38.34,86.25c-1.92-.36-3.79-.77-5.63-1.23-.46-1.83-.87-3.71-1.23-5.62q1.64,1.77,3.36,3.49h0Q36.57,84.62,38.34,86.25Z"/><path class="cls-6" d="M25,63.72q-1.65-2.41-3.11-4.85Q23.34,56.44,25,54c-.06,1.6-.1,3.22-.1,4.85S24.93,62.11,25,63.72Z"/><path class="cls-3" d="M31.48,38.34c.36-1.92.77-3.79,1.23-5.63,1.84-.46,3.71-.87,5.63-1.23q-1.77,1.64-3.5,3.36T31.48,38.34Z"/><path class="cls-2" d="M54,25q2.41-1.65,4.85-3.11Q61.3,23.34,63.72,25c-1.61-.07-3.22-.1-4.85-.1S55.62,24.92,54,25Z"/><path class="cls-3" d="M79.4,31.48c1.91.36,3.79.77,5.62,1.23.46,1.84.87,3.71,1.23,5.63q-1.64-1.77-3.36-3.5T79.4,31.48Z"/><path class="cls-6" d="M92.75,54q1.65,2.41,3.11,4.85-1.45,2.43-3.11,4.85c.06-1.61.09-3.23.09-4.85S92.81,55.62,92.75,54Z"/><path class="cls-6" d="M92.06,45.12a106.91,106.91,0,0,0-1.82-10.93,70.93,70.93,0,0,1,10.84,4.43c1,.52,2,1,2.85,1.58-.26,1-.56,2.07-.9,3.13a70.27,70.27,0,0,1-4.53,10.8A107.63,107.63,0,0,0,92.06,45.12Z"/><path class="cls-3" d="M79.11,16.65A70.46,70.46,0,0,1,83.54,27.5a109.51,109.51,0,0,0-10.92-1.83,110,110,0,0,0-9-6.43A70.34,70.34,0,0,1,74.4,14.7c1.07-.34,2.11-.63,3.14-.9C78.07,14.71,78.6,15.66,79.11,16.65Z"/><path class="cls-1" d="M43.33,14.7a70.34,70.34,0,0,1,10.8,4.54c-3,1.94-6.05,4.09-9,6.43A109.72,109.72,0,0,0,34.19,27.5a70.47,70.47,0,0,1,4.44-10.85c.51-1,1-1.94,1.57-2.85C41.23,14.06,42.27,14.36,43.33,14.7Z"/><path class="cls-4" d="M16.65,38.62A71.47,71.47,0,0,1,27.5,34.19a109.72,109.72,0,0,0-1.83,10.93c-2.34,3-4.49,6-6.43,9a70.34,70.34,0,0,1-4.54-10.8c-.34-1.06-.64-2.1-.9-3.13C14.71,39.66,15.66,39.14,16.65,38.62Z"/><path class="cls-6" d="M10.19,44.77a77.07,77.07,0,0,0,6.22,14.1A77.29,77.29,0,0,0,10.19,73q-.28.92-.54,1.8C3.37,70,0,64.54,0,58.87S3.37,47.71,9.65,43C9.82,43.57,10,44.17,10.19,44.77Z"/><path class="cls-2" d="M14.7,74.4a70.34,70.34,0,0,1,4.54-10.8,110,110,0,0,0,6.43,9A109.51,109.51,0,0,0,27.5,83.54a70.46,70.46,0,0,1-10.85-4.43c-1-.51-1.94-1-2.85-1.57C14.06,76.51,14.36,75.47,14.7,74.4Z"/><path class="cls-4" d="M38.63,101.08a69.94,69.94,0,0,1-4.44-10.84,106.91,106.91,0,0,0,10.93,1.82,109.29,109.29,0,0,0,9,6.44A70.27,70.27,0,0,1,43.33,103c-1.06.34-2.1.64-3.13.9C39.66,103,39.14,102.08,38.63,101.08Z"/><path class="cls-6" d="M74.4,103A70.27,70.27,0,0,1,63.6,98.5a107.76,107.76,0,0,0,9-6.44,106.71,106.71,0,0,0,10.92-1.82,69.93,69.93,0,0,1-4.43,10.84c-.51,1-1,2-1.57,2.85C76.51,103.67,75.47,103.37,74.4,103Z"/><path class="cls-4" d="M101.08,79.11a69.93,69.93,0,0,1-10.84,4.43,106.71,106.71,0,0,0,1.82-10.92,107.76,107.76,0,0,0,6.44-9A70.27,70.27,0,0,1,103,74.4c.34,1.07.64,2.11.9,3.14C103,78.07,102.08,78.6,101.08,79.11Z"/><path class="cls-3" d="M107.55,73a77.29,77.29,0,0,0-6.22-14.09,77.07,77.07,0,0,0,6.22-14.1c.19-.6.37-1.2.54-1.79,6.27,4.73,9.65,10.22,9.65,15.89S114.36,70,108.09,74.76Q107.84,73.88,107.55,73Z"/><path class="cls-2" d="M109.27,38a40.06,40.06,0,0,0,.71-8.31,58.67,58.67,0,0,1,5.69,13.71A41,41,0,0,0,109.27,38Z"/><path class="cls-1" d="M88.06,7.76a40.15,40.15,0,0,0-8.32.71,39.09,39.09,0,0,0-5.4-6.4A58.32,58.32,0,0,1,88.06,7.76Z"/><path class="cls-6" d="M38,8.47a40.06,40.06,0,0,0-8.31-.71A58.25,58.25,0,0,1,43.39,2.07,40.55,40.55,0,0,0,38,8.47Z"/><path class="cls-4" d="M29.67,110l.91,0a40.78,40.78,0,0,0,7.41-.72,41,41,0,0,0,5.4,6.4A58.35,58.35,0,0,1,29.67,110Z"/><path class="cls-1" d="M79.74,109.27a41,41,0,0,0,7.42.72l.9,0a58.18,58.18,0,0,1-13.72,5.7A39.94,39.94,0,0,0,79.74,109.27Z"/><path class="cls-5" d="M110,88.06a40.1,40.1,0,0,0-.71-8.32,39.94,39.94,0,0,0,6.4-5.4A58.75,58.75,0,0,1,110,88.06Z"/><path d="M35.82,65h6.09a3,3,0,0,0,1.82-.43,1.62,1.62,0,0,0,.58-1.38,1.57,1.57,0,0,0-.59-1.36,3,3,0,0,0-1.81-.44H37V58.85h4.84a3,3,0,0,0,1.82-.43,1.55,1.55,0,0,0,.58-1.34,1.59,1.59,0,0,0-.58-1.36,3.07,3.07,0,0,0-1.82-.44h-6V52.76h7.09a5.87,5.87,0,0,1,3.7,1,4.11,4.11,0,0,1,.7,4.84,5.17,5.17,0,0,1-1.51,1.57,3.66,3.66,0,0,1,1.53,1.39,4.07,4.07,0,0,1,.49,2.09,3.6,3.6,0,0,1-1.2,2.9,5.09,5.09,0,0,1-3.39,1H35.82Z"/><path d="M58,59a6.23,6.23,0,0,1,3.88,1,3.75,3.75,0,0,1,1.25,3.1,4,4,0,0,1-1.67,3.45,8.44,8.44,0,0,1-4.9,1.18c-2.54,0-4.42-.6-5.61-1.79s-1.8-3.07-1.8-5.62.63-4.5,1.91-5.72,3.26-1.83,6-1.83h5.26v2.52H57a4.8,4.8,0,0,0-3.2.88,3.7,3.7,0,0,0-1,2.83Zm-.18,2.54H52.75a3.8,3.8,0,0,0,1,2.83,4.3,4.3,0,0,0,3,.87A4.17,4.17,0,0,0,59,64.77a1.67,1.67,0,0,0,.69-1.5A1.75,1.75,0,0,0,59.2,62,1.9,1.9,0,0,0,57.84,61.53Z"/><path d="M71.49,67.74q-3.78,0-5.59-1.85t-1.81-5.72q0-3.89,1.82-5.74c1.2-1.24,3.07-1.86,5.58-1.86s4.36.62,5.56,1.86,1.81,3.15,1.81,5.74-.61,4.49-1.81,5.72S74,67.74,71.49,67.74Zm0-2.44A3.72,3.72,0,0,0,74.57,64a6.12,6.12,0,0,0,1-3.87,6.18,6.18,0,0,0-1-3.89,4.44,4.44,0,0,0-6.2,0,6.18,6.18,0,0,0-1,3.89,6.12,6.12,0,0,0,1,3.87A3.71,3.71,0,0,0,71.47,65.3Z"/><path d="M82.59,54.32a3,3,0,1,1,3-3A3,3,0,0,1,82.59,54.32Zm0-4.4A1.44,1.44,0,1,0,84,51.36,1.44,1.44,0,0,0,82.59,49.92Z"/></svg>